<?xml version="1.0" encoding="UTF-8" standalone="no"?>
<!DOCTYPE svg PUBLIC "-//W3C//DTD SVG 1.1//EN" "http://www.w3.org/Graphics/SVG/1.1/DTD/svg11.dtd">
<svg xmlns="http://www.w3.org/2000/svg" xmlns:xlink="http://www.w3.org/1999/xlink" width="100%" height="100%" style="fill-rule:evenodd;clip-rule:evenodd;stroke-linejoin:round;stroke-miterlimit:1.41421;" version="1.1" viewBox="0 0 437 98" xml:space="preserve">
    <rect id="Artboard1" width="436.025" height="97.863" x="0" y="0" style="fill:none;"/>
    <clipPath id="_clip1">
        <rect id="Artboard11" width="436.025" height="97.863" x="0" y="0"/>
    </clipPath>
    <g clip-path="url(#_clip1)">
        <g>
            <path d="M170.578,80.717l0,3.003l14.143,14.143l14.143,-14.143l0,-3.003l-28.286,0Z" style="fill:#0088cf;fill-rule:nonzero;"/>
            <path d="M246.298,36.289l0,-3.002l-28.286,3.002l-28.283,-3l0,3.002l14.14,14.141l-14.143,11.141l0,3.001l14.144,14.141l14.142,-14.141l14.143,14.142l14.143,-14.142l0,-3.001l-14.143,-11.141l14.143,-14.143Z" style="fill:#0088cf;fill-rule:nonzero;"/>
            <path d="M179.719,64.575l0,-3.001l-42.428,-39.427l-28.286,25.283l0,3.001l14.142,14.144l14.142,-14.144l28.285,28.285l14.145,-14.141Z" style="fill:#0088cf;fill-rule:nonzero;"/>
            <path d="M98.998,50.432l0,-3.002l-28.283,-25.281l-6.037,6.034l-0.002,0l-8.108,8.105l-14.141,-14.139l-10.767,10.765l-3.376,3.375l-14.142,-14.141l-14.142,11.14l0,3.001l17.521,17.524l10.763,10.763l14.143,-14.144l4.529,4.529l0.001,0l9.612,9.614l14.144,-14.143l14.142,14.143l14.143,-14.143Z" style="fill:#0088cf;fill-rule:nonzero;"/>
            <path d="M251.302,31.287l14.143,-14.143l0,-3.002l-28.286,0l0,3.002l14.143,14.143Z" style="fill:#0088cf;fill-rule:nonzero;"/>
            <path d="M256.304,36.289l42.428,42.427l3.326,-3.325l0.002,0.001l24.96,-24.96l0,-3.001l-14.143,-11.142l-14.143,14.143l-28.285,-28.284l-14.145,11.139l0,3.002Z" style="fill:#0088cf;fill-rule:nonzero;"/>
            <path d="M337.026,50.433l28.284,28.283l6.036,-6.037l0.002,0.003l8.108,-8.107l14.142,14.141l10.767,-10.766l3.376,-3.375l14.142,14.141l14.142,-14.141l0,-3.002l-17.522,-14.521l-10.762,-10.764l-14.143,14.144l-4.529,-4.529l-0.001,0l-9.612,-9.614l-14.145,14.144l-14.142,-14.144l-14.143,11.143l0,3.001Z" style="fill:#0088cf;fill-rule:nonzero;"/>
            <path d="M184.721,66.576l-14.143,14.141l14.143,14.142l14.144,-14.142l-14.144,-14.141Z" style="fill:#fff;fill-rule:nonzero;"/>
            <path d="M246.298,33.287l-14.143,-14.143l-14.143,14.143l-14.141,-14.141l-14.142,14.143l14.14,14.141l-14.143,14.143l14.144,14.139l14.142,-14.14l14.143,14.141l14.143,-14.14l-14.143,-14.143l14.143,-14.143Z" style="fill:#fff;fill-rule:nonzero;"/>
            <path d="M179.719,61.574l-42.428,-42.428l-3.326,3.325l-0.001,-0.001l-24.959,24.96l14.142,14.144l14.142,-14.144l28.285,28.283l14.145,-14.139Z" style="fill:#fff;fill-rule:nonzero;"/>
            <path d="M98.998,47.43l-28.283,-28.283l-6.037,6.036l-0.002,-0.001l-8.108,8.106l-14.141,-14.141l-10.767,10.766l-3.376,3.376l-14.142,-14.142l-14.142,14.141l17.521,17.523l10.763,10.764l14.143,-14.144l4.529,4.529l0.001,0l9.612,9.613l14.144,-14.143l14.142,14.143l14.143,-14.143Z" style="fill:#fff;fill-rule:nonzero;"/>
            <path d="M251.302,28.285l14.143,-14.143l-14.143,-14.142l-14.143,14.142l14.143,14.143Z" style="fill:#fff;fill-rule:nonzero;"/>
            <path d="M256.304,33.287l42.428,42.426l3.326,-3.324l0.002,0.002l24.96,-24.96l-14.143,-14.144l-14.143,14.144l-28.285,-28.285l-14.145,14.141Z" style="fill:#fff;fill-rule:nonzero;"/>
            <path d="M337.026,47.432l28.284,28.28l6.036,-6.034l0.002,0.002l8.108,-8.106l14.142,14.138l10.767,-10.763l3.376,-3.376l14.142,14.139l14.142,-14.138l-17.522,-17.523l-10.762,-10.764l-14.143,14.144l-4.529,-4.529l-0.001,0l-9.612,-9.613l-14.145,14.143l-14.142,-14.143l-14.143,14.143Z" style="fill:#fff;fill-rule:nonzero;"/>
        </g>
    </g>
</svg>
