<?xml version="1.0" encoding="UTF-8" standalone="no"?><!DOCTYPE svg PUBLIC "-//W3C//DTD SVG 1.1//EN" "http://www.w3.org/Graphics/SVG/1.1/DTD/svg11.dtd"><svg width="100%" height="100%" viewBox="0 0 28 24" version="1.1" xmlns="http://www.w3.org/2000/svg" xmlns:xlink="http://www.w3.org/1999/xlink" xml:space="preserve" style="fill-rule:evenodd;clip-rule:evenodd;stroke-linejoin:round;stroke-miterlimit:1.41421;"><rect id="Artboard1" x="0" y="0" width="27.591" height="23.177" style="fill:none;"/><clipPath id="_clip1"><rect x="0" y="0" width="27.591" height="23.177"/></clipPath><g clip-path="url(#_clip1)"><g><path d="M17.203,0.279l-0.934,-0.257c-0.121,-0.04 -0.239,-0.026 -0.354,0.038c-0.115,0.065 -0.194,0.163 -0.234,0.295l-5.624,19.465c-0.04,0.13 -0.028,0.254 0.038,0.369c0.065,0.116 0.163,0.194 0.294,0.234l0.934,0.256c0.121,0.041 0.239,0.029 0.355,-0.038c0.116,-0.065 0.193,-0.162 0.234,-0.293l5.623,-19.465c0.041,-0.131 0.028,-0.254 -0.037,-0.37c-0.066,-0.116 -0.163,-0.195 -0.295,-0.234" style="fill:#3fa9f5;fill-rule:nonzero;"/><path d="M8.775,4.079c0,-0.13 -0.049,-0.246 -0.15,-0.347l-0.755,-0.754c-0.1,-0.1 -0.215,-0.15 -0.346,-0.15c-0.131,0 -0.246,0.05 -0.348,0.15l-7.025,7.026c-0.101,0.101 -0.151,0.217 -0.151,0.347c0,0.131 0.05,0.247 0.151,0.347l7.025,7.026c0.102,0.101 0.217,0.151 0.348,0.151c0.131,0 0.246,-0.05 0.346,-0.151l0.755,-0.753c0.101,-0.101 0.15,-0.217 0.15,-0.347c0,-0.131 -0.049,-0.247 -0.15,-0.347l-5.926,-5.926l5.926,-5.925c0.101,-0.1 0.15,-0.216 0.15,-0.347" style="fill:#3fa9f5;fill-rule:nonzero;"/><path d="M27.441,10.004l-7.026,-7.025c-0.1,-0.101 -0.216,-0.151 -0.346,-0.151c-0.131,0 -0.247,0.05 -0.348,0.151l-0.753,0.754c-0.101,0.099 -0.15,0.215 -0.15,0.346c0,0.131 0.049,0.247 0.15,0.347l5.925,5.926l-5.925,5.925c-0.101,0.1 -0.15,0.216 -0.15,0.347c0,0.13 0.049,0.246 0.15,0.347l0.753,0.753c0.101,0.101 0.217,0.151 0.348,0.151c0.13,0 0.246,-0.05 0.346,-0.151l7.026,-7.026c0.101,-0.1 0.15,-0.215 0.15,-0.346c0,-0.131 -0.049,-0.247 -0.15,-0.348" style="fill:#3fa9f5;fill-rule:nonzero;"/></g></g></svg>