<?xml version="1.0" encoding="UTF-8" standalone="no"?><!DOCTYPE svg PUBLIC "-//W3C//DTD SVG 1.1//EN" "http://www.w3.org/Graphics/SVG/1.1/DTD/svg11.dtd"><svg width="100%" height="100%" viewBox="0 0 28 24" version="1.1" xmlns="http://www.w3.org/2000/svg" xmlns:xlink="http://www.w3.org/1999/xlink" xml:space="preserve" style="fill-rule:evenodd;clip-rule:evenodd;stroke-linejoin:round;stroke-miterlimit:1.41421;"><rect id="Artboard1" x="0" y="0" width="27.591" height="23.177" style="fill:none;"/><path d="M12.401,3.936l0,-1.23l0,-0.004l0,-0.006l0,-1.55l2.789,0l0,2.79l-2.789,0Zm-9.925,-1.035c-0.111,0 -0.201,-0.09 -0.201,-0.2c0,-0.112 0.09,-0.202 0.201,-0.202c0.11,0 0.2,0.09 0.2,0.202c0,0.11 -0.09,0.2 -0.2,0.2m22.639,-0.402c0.111,0 0.2,0.09 0.2,0.202c0,0.11 -0.089,0.2 -0.2,0.2c-0.11,0 -0.201,-0.09 -0.201,-0.2c0,-0.112 0.091,-0.202 0.201,-0.202m-5.718,0.775l4.499,0c0.216,0.456 0.681,0.773 1.219,0.773c0.743,0 1.347,-0.604 1.347,-1.346c0,-0.744 -0.604,-1.347 -1.347,-1.347c-0.538,0 -1.003,0.316 -1.219,0.773l-7.559,0l0,-1.554c0,-0.317 -0.257,-0.573 -0.574,-0.573l-3.935,0c-0.317,0 -0.574,0.256 -0.574,0.573l0,1.554l-7.56,0c-0.216,-0.457 -0.681,-0.773 -1.218,-0.773c-0.743,0 -1.347,0.603 -1.347,1.347c0,0.742 0.604,1.346 1.347,1.346c0.537,0 1.002,-0.317 1.218,-0.773l4.499,0c-1.522,0.752 -2.894,1.808 -4.018,3.119c-1.964,2.291 -3.046,5.219 -3.046,8.241c0,0.317 0.255,0.573 0.573,0.573c0.316,0 0.573,-0.256 0.573,-0.573c0,-5.444 3.737,-10.067 8.979,-11.239l0,1.113c0,0.317 0.257,0.574 0.574,0.574l3.935,0c0.317,0 0.574,-0.257 0.574,-0.574l0,-1.113c5.241,1.172 8.978,5.795 8.978,11.239c0,0.317 0.257,0.573 0.574,0.573c0.316,0 0.573,-0.256 0.573,-0.573c0,-3.022 -1.082,-5.95 -3.047,-8.241c-1.124,-1.311 -2.495,-2.367 -4.018,-3.119" style="fill:#3fa9f5;fill-rule:nonzero;"/></svg>