<?xml version="1.0" encoding="UTF-8" standalone="no"?><!DOCTYPE svg PUBLIC "-//W3C//DTD SVG 1.1//EN" "http://www.w3.org/Graphics/SVG/1.1/DTD/svg11.dtd"><svg width="100%" height="100%" viewBox="0 0 28 24" version="1.1" xmlns="http://www.w3.org/2000/svg" xmlns:xlink="http://www.w3.org/1999/xlink" xml:space="preserve" style="fill-rule:evenodd;clip-rule:evenodd;stroke-linejoin:round;stroke-miterlimit:1.41421;"><rect id="Artboard1" x="0" y="0" width="27.591" height="23.177" style="fill:none;"/><clipPath id="_clip1"><rect x="0" y="0" width="27.591" height="23.177"/></clipPath><g clip-path="url(#_clip1)"><path d="M9.075,19.833c-0.322,-0.322 -0.478,-0.731 -0.535,-1.152c-0.137,0.021 -0.275,0.041 -0.416,0.041c-0.72,0 -1.396,-0.283 -1.904,-0.791c-0.509,-0.51 -0.79,-1.186 -0.79,-1.905c0,-0.131 0.02,-0.259 0.039,-0.386c-0.436,-0.059 -0.838,-0.25 -1.154,-0.566c-0.03,-0.03 -0.041,-0.071 -0.068,-0.104l-1.645,6.579l6.562,-1.644c-0.028,-0.025 -0.062,-0.045 -0.089,-0.072m8.572,-15.234l-10.475,10.475c-0.527,0.525 -0.525,1.378 0,1.905c0.526,0.526 1.378,0.528 1.905,-0.001l10.476,-10.475l-1.906,-1.904Zm-12.38,8.57c-0.263,0.264 -0.263,0.689 0,0.953c0.263,0.263 0.69,0.263 0.953,0l10.477,-10.475l-0.952,-0.953l-10.478,10.475Zm4.762,4.762c-0.262,0.263 -0.262,0.689 0,0.952c0.264,0.264 0.69,0.264 0.952,0l10.478,-10.474l-0.954,-0.953l-10.476,10.475Zm13.334,-11.428l-0.952,0.953l-5.714,-5.713l0.952,-0.953c1.052,-1.053 2.758,-1.053 3.81,0l1.904,1.904c1.051,1.052 1.051,2.757 0,3.809" style="fill:#3fa9f5;fill-rule:nonzero;"/></g></svg>